<?xml version="1.0" encoding="UTF-8" standalone="no"?>
<!-- Created with Inkscape (http://www.inkscape.org/) -->

<svg
   width="270.03894mm"
   height="232.36427mm"
   viewBox="0 0 270.03894 232.36427"
   version="1.1"
   id="svg1"
   xml:space="preserve"
   inkscape:version="1.3 (0e150ed6c4, 2023-07-21)"
   sodipodi:docname="Icono de Override Blanco.svg"
   inkscape:export-filename="Icono de Override Blanco Pegado.png"
   inkscape:export-xdpi="96"
   inkscape:export-ydpi="96"
   xmlns:inkscape="http://www.inkscape.org/namespaces/inkscape"
   xmlns:sodipodi="http://sodipodi.sourceforge.net/DTD/sodipodi-0.dtd"
   xmlns="http://www.w3.org/2000/svg"
   xmlns:svg="http://www.w3.org/2000/svg"><sodipodi:namedview
     id="namedview1"
     pagecolor="#ffffff"
     bordercolor="#111111"
     borderopacity="1"
     inkscape:showpageshadow="0"
     inkscape:pageopacity="0"
     inkscape:pagecheckerboard="1"
     inkscape:deskcolor="#d1d1d1"
     inkscape:document-units="mm"
     inkscape:zoom="0.5"
     inkscape:cx="687"
     inkscape:cy="661"
     inkscape:window-width="1920"
     inkscape:window-height="1009"
     inkscape:window-x="1912"
     inkscape:window-y="-8"
     inkscape:window-maximized="1"
     inkscape:current-layer="svg1"
     inkscape:export-bgcolor="#00000000" /><defs
     id="defs1" /><g
     id="layer6-1"
     inkscape:label="LOGOG SUP"
     style="display:inline;fill:#ffffff;fill-opacity:1"
     transform="matrix(1.4000008,0,0,1.4000008,-0.77505213,-73.467643)"
     inkscape:export-filename="..\Diseño\Logo Blanco Quickness.svg"
     inkscape:export-xdpi="96"
     inkscape:export-ydpi="96"><ellipse
       style="display:inline;fill:#ffffff;fill-opacity:1;stroke:none;stroke-width:1.52367"
       id="path259-2-0-7"
       cx="76.672585"
       cy="-96.884048"
       rx="24.195728"
       ry="24.917837"
       transform="rotate(90)"
       inkscape:transform-center-x="-278.7001"
       inkscape:transform-center-y="-222.90434" /><path
       style="display:inline;fill:#ffffff;fill-opacity:1;stroke:none;stroke-width:1.52367;stroke-opacity:1"
       d="m 0.55361099,147.69648 0.1923,3.20102 0.96021001,3.88351 1.72844,3.97773 2.18447,3.17745 2.85667,2.94208 2.8807,2.14186 3.0727,1.64753 3.24078,1.24746 3.43283,0.82379 3.4328,0.18837 3.36076,-0.28241 3.12076,-0.5181 3.81685,-0.23524 3.8649,0.23524 3.57688,0.4236 3.64883,0.68255 3.3608,1.01209 3.76889,1.43575 3.72083,2.00062 2.85667,1.88295 3.04871,2.73026 2.30457,2.42426 2.08849,2.63614 1.3683,2.09475 1.46432,2.44782 1.27232,2.58904 1.05624,2.40075 0.88821,2.58901 0.57601,3.03623 c 0,0 1.32035,4.51907 2.66466,6.51966 1.3443,2.00064 2.35253,3.31869 3.12068,4.0954 0.76824,0.7767 2.35261,2.16542 3.04876,2.65965 0.69617,0.49417 3.81688,2.73026 6.96162,3.62462 3.14473,0.89441 7.36979,1.24743 9.41025,0.91799 2.040479,-0.32965 3.120699,-0.4236 3.120699,-0.4236 l 3.93697,-1.22387 3.45679,-1.60052 3.86487,-2.89501 2.95269,-2.98916 2.01647,-3.43634 1.41633,-3.03622 0.74419,-2.94215 0.64813,-3.45985 1.48838,-4.42493 2.01646,-3.90708 2.73664,-4.11892 3.28881,-3.76588 3.67281,-3.17743 3.86494,-2.54201 3.14469,-1.4828 3.96093,-1.43573 3.62485,-1.03562 3.91296,-0.63548 3.52881,-0.28238 h 4.15294 l 3.72088,0.25906 3.76891,0.47082 h 2.56858 l 4.32105,-0.58841 3.91288,-1.27103 4.05694,-2.18891 3.02472,-2.11828 1.92044,-1.93003 1.70438,-2.23596 1.05624,-1.71823 0.84025,-1.64756 0.62413,-1.50633 0.50401,-1.31803 0.36001,-1.31807 0.28802,-1.78878 0.23984,-1.83585 0.072,-1.71815 -0.0245,-1.45929 -0.14381,-1.67112 -0.21606,-1.36512 -0.36003,-1.50634 -0.48019,-1.60052 -0.64819,-1.7417 -1.10416,-2.33016 -1.56042,-2.30658 -1.63237,-1.90648 -2.25653,-2.04768 -2.78469,-2.00063 -2.95261,-1.50635 -2.85668,-1.08268 -3.38482,-0.68253 -3.91289,-0.35299 -3.60088,0.28238 -3.76889,0.75315 -3.48078,1.45928 -3.07273,1.69465 -2.25656,1.78878 -1.58438,1.43575 -1.36828,1.48281 -0.86422,1.0356 -0.81622,1.24745 -0.74416,1.41219 -1.10426,2.14187 -0.62417,1.57697 -0.43202,1.60046 -0.74411,1.81233 -1.2963,2.61257 -1.82447,3.31864 -1.51235,2.25956 -1.24828,1.81225 -1.80043,1.97713 -1.96846,2.07124 -1.96844,1.81233 -2.06452,1.64759 -2.18447,1.45925 -3.60086,2.25955 -4.00895,1.92994 -3.84087,1.43583 -4.9692,1.71813 -5.04118,1.08265 -3.96084,0.63555 -3.768929,0.35299 h -3.86491 l -3.81692,-0.28241 -4.60906,-0.65906 -5.06522,-1.03556 -3.60086,-1.01206 -3.38478,-1.15339 -6.0974,-2.56542 -4.321,-2.63615 -4.41705,-3.20092 -3.50483,-3.34225 -2.0165,-2.35368 -1.89642,-2.40071 -1.3443,-1.95357 -1.27231,-2.49487 -0.8642,-1.67108 -0.88821,-2.14185 -0.76818,-2.42429 -1.08027,-2.70674 -1.56034,-3.01269 -2.64063,-3.03623 -2.95266,-2.61257 -2.66464,-1.71818 -3.07269,-1.43575 -3.40882,-1.08268 -2.83264,-0.56488 -3.3128,-0.23536 -3.12075,0.35304 -2.47255,0.5178 -2.92867,0.77671 -2.18456,1.17683 -2.47255,1.48282 -1.3443,0.8944 -2.23252,1.85939 -1.80043,2.00062 -1.58441,2.16537 -1.46435,2.51842 -1.24826,3.15394 -0.67213001,2.96561 z"
       id="path365-2-4-2"
       inkscape:transform-center-x="-278.71186"
       inkscape:transform-center-y="-128.56737" /></g></svg>
