<?xml version="1.0" standalone="no"?>
<!DOCTYPE svg PUBLIC "-//W3C//DTD SVG 20010904//EN"
 "http://www.w3.org/TR/2001/REC-SVG-20010904/DTD/svg10.dtd">
<svg version="1.0" xmlns="http://www.w3.org/2000/svg"
 width="548.000000pt" height="456.000000pt" viewBox="0 0 548.000000 456.000000"
 preserveAspectRatio="xMidYMid meet">

<g transform="translate(0.000000,456.000000) scale(0.100000,-0.100000)"
fill="#000000" stroke="none">
<path d="M2810 4243 c-26 -10 -154 -73 -175 -86 -211 -131 -350 -338 -405
-601 -16 -75 -19 -132 -19 -316 0 -244 -11 -328 -67 -496 -40 -121 -143 -299
-179 -311 -6 -2 -31 32 -57 75 -56 94 -160 200 -230 237 -47 25 -139 58 -144
52 -2 -1 6 -29 17 -61 34 -104 23 -221 -36 -371 -15 -38 -36 -92 -47 -120 -74
-189 -109 -343 -128 -556 -30 -336 60 -673 243 -914 123 -162 331 -320 532
-403 44 -19 95 -40 114 -48 52 -23 47 -11 -11 28 -207 138 -318 362 -318 638
0 148 22 260 80 410 63 162 74 238 45 294 -9 16 -14 31 -12 32 2 2 24 -3 50
-12 59 -20 128 -81 169 -150 18 -30 37 -54 43 -54 16 0 69 88 99 164 36 89 59
248 51 346 -7 80 5 175 32 250 24 66 98 174 151 220 43 38 181 114 190 105 2
-2 -2 -21 -9 -42 -21 -62 -18 -276 5 -343 29 -87 78 -159 167 -245 95 -93 177
-212 232 -338 41 -97 77 -230 77 -289 0 -44 15 -49 52 -16 47 44 81 125 94
226 4 29 10 55 14 57 16 10 97 -230 126 -370 36 -170 22 -459 -26 -554 -4 -9
-16 -34 -26 -56 -29 -63 -118 -176 -171 -217 -26 -21 -57 -45 -68 -54 l-20
-15 20 5 c79 20 242 98 351 168 344 221 531 599 527 1063 -2 282 -75 625 -194
915 -60 146 -61 146 -79 20 -14 -104 -34 -176 -70 -257 -32 -70 -98 -147 -139
-161 l-27 -10 -13 97 c-21 166 -56 292 -122 445 -102 238 -192 371 -380 559
-154 154 -198 211 -247 318 -40 85 -51 119 -68 214 -24 136 -13 360 25 485 16
53 15 56 -19 43z"/>
</g>
</svg>
